<svg width="18" height="18" viewBox="0 0 18 18" fill="none" xmlns="http://www.w3.org/2000/svg">
<path d="M0.410285 16.3331C0.084594 16.6588 0.084594 17.1869 0.410285 17.5126C0.735975 17.8383 1.26402 17.8383 1.58972 17.5126L0.410285 16.3331ZM17.6796 1.07719C17.6796 0.616597 17.3063 0.24321 16.8457 0.243209L9.33981 0.24321C8.87921 0.24321 8.50582 0.616597 8.50582 1.07719C8.50583 1.53779 8.87921 1.91118 9.33981 1.91118L16.0117 1.91118L16.0117 8.58304C16.0117 9.04364 16.3851 9.41703 16.8457 9.41703C17.3063 9.41703 17.6796 9.04364 17.6796 8.58304L17.6796 1.07719ZM1.58972 17.5126L17.4354 1.66691L16.2559 0.487478L0.410285 16.3331L1.58972 17.5126Z" fill="#724634" style="fill:#724634;fill:color(display-p3 0.4471 0.2745 0.2039);fill-opacity:1;"/>
</svg>
