<svg width="18" height="18" viewBox="0 0 18 18" fill="none" xmlns="http://www.w3.org/2000/svg">
<path d="M0.410285 16.2559C0.084594 16.5816 0.084594 17.1097 0.410285 17.4354C0.735975 17.761 1.26402 17.761 1.58972 17.4354L0.410285 16.2559ZM17.6796 0.999984C17.6796 0.539387 17.3063 0.166 16.8457 0.166L9.33981 0.166C8.87921 0.166 8.50582 0.539387 8.50582 0.999984C8.50582 1.46058 8.87921 1.83397 9.33981 1.83397L16.0117 1.83397L16.0117 8.50583C16.0117 8.96643 16.3851 9.33982 16.8457 9.33982C17.3063 9.33982 17.6796 8.96643 17.6796 8.50583L17.6796 0.999984ZM1.58972 17.4354L17.4354 1.5897L16.2559 0.410268L0.410285 16.2559L1.58972 17.4354Z" fill="#F7EBE7" style="fill:#F7EBE7;fill:color(display-p3 0.9686 0.9216 0.9059);fill-opacity:1;"/>
</svg>
