<svg width="54" height="54" viewBox="0 0 54 54" fill="none" xmlns="http://www.w3.org/2000/svg">
<circle cx="27" cy="27" r="27" fill="#F7EBE7" style="fill:#F7EBE7;fill:color(display-p3 0.9686 0.9216 0.9059);fill-opacity:1;"/>
<path d="M17.2929 36.2929C16.9024 36.6834 16.9024 37.3166 17.2929 37.7071C17.6834 38.0976 18.3166 38.0976 18.7071 37.7071L17.2929 36.2929ZM38 18C38 17.4477 37.5523 17 37 17L28 17C27.4477 17 27 17.4477 27 18C27 18.5523 27.4477 19 28 19L36 19L36 27C36 27.5523 36.4477 28 37 28C37.5523 28 38 27.5523 38 27L38 18ZM18.7071 37.7071L37.7071 18.7071L36.2929 17.2929L17.2929 36.2929L18.7071 37.7071Z" fill="#724634" style="fill:#724634;fill:color(display-p3 0.4471 0.2745 0.2039);fill-opacity:1;"/>
</svg>
