<svg width="50" height="50" viewBox="0 0 50 50" fill="none" xmlns="http://www.w3.org/2000/svg">
<circle cx="24.989" cy="24.989" r="23.9006" stroke="#724634" style="stroke:#724634;stroke:color(display-p3 0.4471 0.2745 0.2039);stroke-opacity:1;" stroke-width="2.17677"/>
<path d="M24.3633 37.8857C24.3633 38.4868 24.8506 38.9741 25.4517 38.9741C26.0528 38.9741 26.54 38.4868 26.54 37.8857L24.3633 37.8857ZM26.2213 12.2474C25.7962 11.8224 25.1071 11.8224 24.6821 12.2474L17.7556 19.1739C17.3306 19.5989 17.3306 20.288 17.7556 20.7131C18.1807 21.1381 18.8698 21.1381 19.2948 20.7131L25.4517 14.5562L31.6085 20.7131C32.0335 21.1381 32.7227 21.1381 33.1477 20.7131C33.5727 20.288 33.5727 19.5989 33.1477 19.1739L26.2213 12.2474ZM26.54 37.8857L26.54 13.017L24.3633 13.017L24.3633 37.8857L26.54 37.8857Z" fill="#724634" style="fill:#724634;fill:color(display-p3 0.4471 0.2745 0.2039);fill-opacity:1;"/>
</svg>
